<?xml version="1.0" encoding="UTF-8"?>
<svg version="1.1" xmlns="http://www.w3.org/2000/svg" width="480" height="480">
<path d="M0 0 C0 28.38 0 56.76 0 86 C9.78527344 85.93039063 19.57054687 85.86078125 29.65234375 85.7890625 C35.85482723 85.75840207 42.05725569 85.72926965 48.25976562 85.70703125 C58.10281167 85.67145631 67.9455491 85.62967993 77.78833008 85.54736328 C84.95745205 85.48743558 92.12632319 85.44882124 99.29568869 85.43546903 C103.08963782 85.42766761 106.88286957 85.4094198 110.67658806 85.36561966 C114.25300155 85.32466586 117.82840739 85.31237587 121.40503311 85.32135391 C123.33216001 85.31893543 125.25917899 85.28676591 127.1860199 85.253479 C135.02686421 85.30898545 140.24497205 86.48250671 146 92 C151.63780059 98.4521352 150.57844194 106.57870274 150.54931641 114.70654297 C150.55801848 116.30872546 150.5683874 117.91089963 150.58029175 119.51306152 C150.60701169 123.85205017 150.60823591 128.19068977 150.60316515 132.52974463 C150.60102148 136.15785513 150.61080335 139.78589563 150.62037599 143.41399109 C150.64254583 151.97673122 150.64345291 160.53929586 150.63134766 169.10205078 C150.61926985 177.9221809 150.64388938 186.74167279 150.68648779 195.56169403 C150.72176802 203.14666767 150.73371496 210.73143861 150.72721231 218.31649125 C150.72359366 222.84125578 150.72878713 227.36556507 150.75664139 231.89025497 C150.78186843 236.14725463 150.7778464 240.40326266 150.75181961 244.6602478 C150.74710383 246.21743231 150.75250128 247.77468738 150.76906586 249.33179092 C150.84624564 257.15434802 150.88573076 263.96324089 145.72237301 270.29352379 C139.93694762 276.02555207 135.37306431 276.46012827 127.43486023 276.49768066 C126.17897598 276.48329956 124.92309174 276.46891846 123.62915039 276.45410156 C122.27838169 276.45297192 120.92761054 276.45360923 119.57684326 276.45587158 C115.92633015 276.45701513 112.27634713 276.43356494 108.62595677 276.40557575 C104.80498169 276.3805016 100.98399327 276.37821538 97.16294861 276.37347412 C89.93466612 276.36106193 82.7066268 276.32826434 75.47845119 276.28807616 C65.70582182 276.23492517 55.93312554 276.21339877 46.16038799 276.19006729 C30.77341 276.15250145 15.38694505 276.07279932 0 276 C0 304.05 0 332.1 0 361 C-16.08235561 358.70252063 -16.08235561 358.70252063 -23.03509521 357.36155701 C-23.83785519 357.20946229 -24.64061516 357.05736756 -25.4677012 356.90066391 C-28.10112538 356.40092229 -30.73366199 355.89666404 -33.36621094 355.39233398 C-35.2762858 355.02886669 -37.18641306 354.66567463 -39.09658813 354.30273438 C-44.24093223 353.32441034 -49.38449879 352.34205612 -54.52789593 351.35876727 C-59.9210733 350.32827342 -65.31486322 349.30099472 -70.70855713 348.27320862 C-79.75015625 346.54976017 -88.79124125 344.8236348 -97.83203125 343.09594727 C-108.29140471 341.09720886 -118.75162822 339.10296752 -129.21230102 337.11104149 C-139.28607964 335.19266318 -149.35921661 333.27093569 -159.4320755 331.34773445 C-163.71731527 330.52963185 -168.00278515 329.71275027 -172.28844452 328.89684868 C-177.32215254 327.93839241 -182.35529654 326.97702868 -187.38801193 326.01337433 C-189.23820048 325.65960013 -191.08858529 325.30685072 -192.93917465 324.95517921 C-195.45622115 324.47668851 -197.97254337 323.99455996 -200.4887085 323.51145935 C-201.22817711 323.37177134 -201.96764572 323.23208334 -202.72952247 323.08816236 C-207.77169233 322.11415383 -207.77169233 322.11415383 -210 321 C-210 228.27 -210 135.54 -210 40 C-195.48274422 36.97557171 -180.9821938 33.98112981 -166.41650391 31.21948242 C-164.60339118 30.87409434 -162.79031245 30.52852773 -160.9772644 30.18280029 C-156.14435979 29.26177816 -151.3109701 28.34332754 -146.47745562 27.42551208 C-141.39067745 26.45923843 -136.30430361 25.49084047 -131.21786499 24.52278137 C-122.70753722 22.90343058 -114.19688548 21.28579142 -105.68603516 19.66918945 C-95.84444121 17.79979396 -86.00339432 15.92753937 -76.16262114 14.05382842 C-66.66097348 12.24476227 -57.15893505 10.43775678 -47.65671921 8.63167763 C-43.62232851 7.86482161 -39.58807979 7.0972249 -35.55394363 6.32903099 C-30.82462461 5.42854836 -26.0949684 4.52985877 -21.36503983 3.63258362 C-19.62740093 3.30264628 -17.88988159 2.97207854 -16.15248871 2.64084816 C-13.79009735 2.19056861 -11.42729168 1.74253207 -9.06436157 1.29508972 C-8.37062364 1.16231713 -7.67688571 1.02954454 -6.96212542 0.89274853 C-2.22831383 0 -2.22831383 0 0 0 Z " fill="#0277BD" transform="translate(270,54)"/>
<path d="M0 0 C22.419375 -0.12375 44.83875 -0.2475 67.9375 -0.375 C75.00792725 -0.42962402 82.07835449 -0.48424805 89.36303711 -0.54052734 C98.01867676 -0.56762695 98.01867676 -0.56762695 102.07496643 -0.57266235 C104.89902721 -0.57823681 107.72240649 -0.60065658 110.54627991 -0.63345337 C114.15616558 -0.67481918 117.76507014 -0.68690945 121.37517083 -0.67843366 C123.31466488 -0.68103507 125.25405213 -0.71310959 127.19325924 -0.74657249 C135.03116142 -0.69085832 140.2473643 0.48480022 146 6 C151.63780059 12.4521352 150.57844194 20.57870274 150.54931641 28.70654297 C150.55801848 30.30872546 150.5683874 31.91089963 150.58029175 33.51306152 C150.60701169 37.85205017 150.60823591 42.19068977 150.60316515 46.52974463 C150.60102148 50.15785513 150.61080335 53.78589563 150.62037599 57.41399109 C150.64254583 65.97673122 150.64345291 74.53929586 150.63134766 83.10205078 C150.61926985 91.9221809 150.64388938 100.74167279 150.68648779 109.56169403 C150.72176802 117.14666767 150.73371496 124.73143861 150.72721231 132.31649125 C150.72359366 136.84125578 150.72878713 141.36556507 150.75664139 145.89025497 C150.78186843 150.14725463 150.7778464 154.40326266 150.75181961 158.6602478 C150.74710383 160.21743231 150.75250128 161.77468738 150.76906586 163.33179092 C150.84624564 171.15434802 150.88573076 177.96324089 145.72237301 184.29352379 C139.93906979 190.02344949 135.37756112 190.46002066 127.44211674 190.497715 C125.5546984 190.47612635 125.5546984 190.47612635 123.62915039 190.45410156 C122.25661229 190.4528748 120.88407166 190.45341261 119.51153469 190.45556259 C115.85074187 190.45646207 112.1904768 190.43335516 108.52980804 190.40512085 C105.08915119 190.38226486 101.64861978 190.3812643 98.20788574 190.37841797 C88.1593545 190.35746613 78.1109205 190.30162114 68.0625 190.25 C45.601875 190.1675 23.14125 190.085 0 190 C0 127.3 0 64.6 0 0 Z " fill="#03A9F4" transform="translate(270,140)"/>
<path d="M0 0 C13.03114457 11.15828718 20.5242022 26.13082766 23.26953125 42.9609375 C23.59358983 47.508638 23.66313796 52.0237073 23.60571289 56.58203125 C23.5819649 58.5915516 23.58520233 60.59974793 23.59179688 62.609375 C23.53352534 73.33133757 22.62417682 83.14099997 18.14453125 92.9609375 C17.83813721 93.64099854 17.53174316 94.32105957 17.21606445 95.02172852 C10.18227257 110.07941136 -0.50637877 120.39326077 -15.73046875 126.9609375 C-16.54902344 127.32316406 -17.36757812 127.68539062 -18.2109375 128.05859375 C-30.08658743 132.31173349 -48.71167377 132.06769066 -60.27734375 127.21484375 C-61.49164063 126.59416016 -61.49164063 126.59416016 -62.73046875 125.9609375 C-64.00664062 125.32478516 -64.00664062 125.32478516 -65.30859375 124.67578125 C-81.03163026 116.01846514 -90.27758723 102.85763857 -95.66796875 86.03515625 C-101.99838424 64.0308755 -99.82338922 39.40887128 -89.23828125 19.09765625 C-80.49756898 4.31372425 -67.37212193 -6.09644771 -50.70703125 -10.3828125 C-33.11815941 -13.74339818 -14.48210307 -10.81496109 0 0 Z " fill="#FCFDFE" transform="translate(204.73046875,175.0390625)"/>
<path d="M0 0 C17.70704816 -0.14035294 35.41395135 -0.24606018 53.12143612 -0.31087303 C61.34392361 -0.34177085 69.56606487 -0.38387268 77.78833008 -0.45263672 C84.95745205 -0.51256442 92.12632319 -0.55117876 99.29568869 -0.56453097 C103.08963782 -0.57233239 106.88286957 -0.5905802 110.67658806 -0.63438034 C114.25300155 -0.67533414 117.82840739 -0.68762413 121.40503311 -0.67864609 C123.33216001 -0.68106457 125.25917899 -0.71323409 127.1860199 -0.746521 C134.98971052 -0.69127757 140.20234891 0.58782989 146 6 C150.70268075 11.63615393 151.84113478 18.58409865 151.3125 25.71875 C150.38356267 30.30689264 148.15929348 32.20667271 144.36401367 34.76074219 C140.91958118 36.78602274 137.41688172 38.66674434 133.86181641 40.49023438 C128.97348513 43.0690981 124.32104039 46.02775439 119.625 48.9375 C117.6664786 50.12813651 115.70684199 51.3169405 113.74609375 52.50390625 C107.51399282 56.2886886 101.3142021 60.12438333 95.11889648 63.96899414 C90.33511042 66.93684128 85.54654017 69.89654906 80.75 72.84375 C79.67363281 73.50536133 78.59726562 74.16697266 77.48828125 74.84863281 C75.29691672 76.19392317 73.10421744 77.53704187 70.91015625 78.87792969 C65.28769814 82.32260453 59.70969625 85.81966133 54.1875 89.421875 C53.09542236 90.12715332 52.00334473 90.83243164 50.87817383 91.55908203 C48.79258819 92.90947041 46.71638564 94.27449178 44.65112305 95.65576172 C43.71824463 96.25662598 42.78536621 96.85749023 41.82421875 97.4765625 C41.01041748 98.01361816 40.19661621 98.55067383 39.3581543 99.10400391 C37 100 37 100 34.49194336 99.31860352 C33.66960205 98.88346436 32.84726074 98.4483252 32 98 C31.23413574 97.59821533 30.46827148 97.19643066 29.67919922 96.7824707 C28.89561035 96.33476318 28.11202148 95.88705566 27.3046875 95.42578125 C26.42296875 94.92240234 25.54125 94.41902344 24.6328125 93.90039062 C23.72273438 93.37638672 22.81265625 92.85238281 21.875 92.3125 C20.988125 91.80783203 20.10125 91.30316406 19.1875 90.78320312 C17.42467413 89.77277178 15.67422806 88.74034699 13.93864441 87.68380737 C11.06531762 85.95702731 11.06531762 85.95702731 8.09516907 84.78408813 C4.73353039 83.18752727 2.5191062 81.76021961 0 79 C-1.56554298 73.01041713 -1.28469541 67.183323 -1.07421875 61.03515625 C-1.05368357 59.27401093 -1.03803434 57.51280246 -1.02705383 55.75157166 C-0.98519533 51.13191 -0.87728719 46.51609725 -0.75531006 41.89794922 C-0.64246166 37.17924067 -0.59247697 32.45990543 -0.53710938 27.74023438 C-0.41939137 18.49180497 -0.2318426 9.24622337 0 0 Z " fill="#03A9F4" transform="translate(270,140)"/>
<path d="M0 0 C9.55499578 6.86577527 13.98544615 17.73926496 16 29 C17.16129803 45.82520622 16.8929417 62.1772326 6 76 C-0.14310185 81.90538508 -6.75305771 85.11913489 -15.3125 85.5 C-23.65107462 85.27980802 -29.68161224 82.37644545 -35.8125 76.8125 C-44.65253118 67.20286611 -47.55910437 54.30915648 -47.375 41.625 C-47.36484863 40.61276367 -47.35469727 39.60052734 -47.34423828 38.55761719 C-47.08602832 26.1195032 -44.65446585 14.39835939 -36.078125 4.86328125 C-26.09936669 -4.36126858 -12.30848465 -6.38217723 0 0 Z " fill="#0377BD" transform="translate(183,194)"/>
<path d="M0 0 C3.40930184 5.57094429 3.97471209 12.55829654 2.83105469 18.88916016 C0.25037183 25.44397331 -8.2676663 28.47908582 -14.13818359 31.49023438 C-19.02651487 34.0690981 -23.67895961 37.02775439 -28.375 39.9375 C-30.3335214 41.12813651 -32.29315801 42.3169405 -34.25390625 43.50390625 C-40.48600718 47.2886886 -46.6857979 51.12438333 -52.88110352 54.96899414 C-57.66488958 57.93684128 -62.45345983 60.89654906 -67.25 63.84375 C-68.32636719 64.50536133 -69.40273438 65.16697266 -70.51171875 65.84863281 C-72.70308328 67.19392317 -74.89578256 68.53704187 -77.08984375 69.87792969 C-82.71230186 73.32260453 -88.29030375 76.81966133 -93.8125 80.421875 C-94.90457764 81.12715332 -95.99665527 81.83243164 -97.12182617 82.55908203 C-99.20741181 83.90947041 -101.28361436 85.27449178 -103.34887695 86.65576172 C-104.28175537 87.25662598 -105.21463379 87.85749023 -106.17578125 88.4765625 C-106.98958252 89.01361816 -107.80338379 89.55067383 -108.6418457 90.10400391 C-111 91 -111 91 -113.50805664 90.31860352 C-114.33039795 89.88346436 -115.15273926 89.4483252 -116 89 C-116.76586426 88.59821533 -117.53172852 88.19643066 -118.32080078 87.7824707 C-119.10438965 87.33476318 -119.88797852 86.88705566 -120.6953125 86.42578125 C-121.5716333 85.92771973 -122.4479541 85.4296582 -123.35083008 84.91650391 C-125.22557924 83.83253823 -127.09511141 82.7395068 -128.9597168 81.63818359 C-134.72538748 78.19773692 -134.72538748 78.19773692 -140.82421875 75.42578125 C-144.27746729 73.92260247 -145.91399978 73.16710079 -148 70 C-149.27593931 62.74400342 -148.66731307 55.29564514 -148 48 C-146.03937549 49.10009317 -144.08171571 50.20546923 -142.125 51.3125 C-141.50947266 51.65917725 -140.89394531 52.00585449 -140.25976562 52.36303711 C-136.53081972 54.48482211 -132.88107873 56.69295757 -129.2734375 59.015625 C-128.48050293 59.52053467 -127.68756836 60.02544434 -126.87060547 60.5456543 C-125.31109136 61.54351847 -123.7602593 62.55510617 -122.21923828 63.58129883 C-119.00025322 65.62827449 -116.85257753 66.96230476 -112.99609375 67.1328125 C-108.80283502 65.54735614 -105.28580775 63.2872781 -101.5625 60.8125 C-99.86060385 59.70903989 -98.15742275 58.60755969 -96.453125 57.5078125 C-95.56173828 56.93063477 -94.67035156 56.35345703 -93.75195312 55.75878906 C-89.15468365 52.82064771 -84.48272409 50.00767206 -79.8125 47.1875 C-71.83422803 42.35528712 -63.90081477 37.45781419 -56 32.5 C-46.20416579 26.35541994 -36.35255213 20.3093357 -26.4609375 14.3203125 C-22.84687102 12.13031907 -19.24911282 9.91685461 -15.6640625 7.6796875 C-14.41665283 6.9047998 -14.41665283 6.9047998 -13.14404297 6.11425781 C-11.59020674 5.14766583 -10.03954188 4.1759499 -8.49267578 3.19824219 C-3.33535825 0 -3.33535825 0 0 0 Z " fill="#B0E4FB" transform="translate(418,149)"/>
</svg>
