<?xml version="1.0" encoding="UTF-8"?>
<svg version="1.1" xmlns="http://www.w3.org/2000/svg" width="480" height="480">
<path d="M0 0 C1.29400749 -0.00576172 1.29400749 -0.00576172 2.61415654 -0.01163983 C3.56238953 -0.01077335 4.51062252 -0.00990687 5.48758984 -0.00901413 C6.99804081 -0.01347081 6.99804081 -0.01347081 8.53900594 -0.01801753 C11.92911737 -0.02672183 15.31919356 -0.02821424 18.7093153 -0.02970505 C21.13349006 -0.03433197 23.55766409 -0.03935646 25.98183727 -0.04475021 C32.5789587 -0.05788779 39.17607278 -0.06435831 45.77320409 -0.06876087 C49.89216475 -0.07152317 54.01112306 -0.0757605 58.13008213 -0.08026505 C69.53340317 -0.09245771 80.93672233 -0.10275707 92.34004974 -0.10614014 C93.06993499 -0.1063597 93.79982023 -0.10657927 94.55182321 -0.10680549 C95.64927586 -0.10713291 95.64927586 -0.10713291 96.76889926 -0.10746694 C98.25147935 -0.1079104 99.73405943 -0.10835697 101.21663952 -0.10880661 C101.952051 -0.10902804 102.68746248 -0.10924947 103.44515916 -0.10947761 C115.36198482 -0.11342579 127.27874933 -0.13088042 139.19555137 -0.15416613 C151.42919201 -0.17787809 163.66280196 -0.19034191 175.89646596 -0.19150805 C182.76569396 -0.1924249 189.63484229 -0.19817949 196.50404835 -0.21632767 C202.96446451 -0.23333564 209.42476975 -0.23498243 215.88520336 -0.22618866 C218.25798669 -0.22541625 220.63077802 -0.22978775 223.00354099 -0.23964691 C226.23977937 -0.2523066 229.4754767 -0.24652185 232.71171093 -0.23606491 C233.65325175 -0.24412132 234.59479257 -0.25217772 235.56486493 -0.26047826 C240.72916157 -0.22138336 244.32800942 0.23566431 248.79012585 3.13142776 C253.49512543 8.22851064 255.04135476 11.83754812 255.03063488 18.76259232 C255.03319815 19.76002209 255.03319815 19.76002209 255.03581321 20.77760196 C255.03910549 23.00405222 255.02810894 25.23020061 255.01717663 27.45662308 C255.01661246 29.05325183 255.01692919 30.6498811 255.01806164 32.24650955 C255.01863592 36.58089059 255.00686938 40.91516114 254.99291372 45.24951649 C254.98041897 49.77921935 254.97923685 54.30892469 254.97686291 58.83864212 C254.97064445 67.41628064 254.95422867 75.99386824 254.93416393 84.57148433 C254.91181632 94.33680132 254.90081436 104.10212072 254.89077306 113.86745691 C254.86986277 133.95547563 254.83467967 154.04344849 254.79012585 174.13142776 C255.69762585 174.37892776 256.60512585 174.62642776 257.54012585 174.88142776 C261.02590903 176.22211361 262.61808403 177.11198001 264.79012585 180.13142776 C265.29349041 183.24340153 265.29349041 183.24340153 265.29806042 186.9812355 C265.30742036 188.01413414 265.30742036 188.01413414 265.31696939 189.06789941 C265.33292244 191.37498715 265.32028697 193.68102167 265.30770397 195.98811722 C265.31312425 197.64235933 265.32024639 199.29659661 265.32894421 200.95082474 C265.34719607 205.44483635 265.34010129 209.93848106 265.32742786 214.43249917 C265.31730473 219.136448 265.32669211 223.84036529 265.33297253 228.54431534 C265.34025309 236.44735224 265.33065278 244.35023972 265.31161022 252.25325394 C265.28986325 261.38395069 265.29687534 270.51428986 265.31891584 279.64497787 C265.33708518 287.48632306 265.33961999 295.32756077 265.32916117 303.16892022 C265.32293176 307.8511622 265.32207493 312.53323632 265.33530712 317.21546745 C265.34688652 321.62081573 265.33880188 326.02570476 265.31573009 330.43100357 C265.31045316 332.04545391 265.31193939 333.65994307 265.32078075 335.27437782 C265.33176146 337.48365843 265.31794455 339.69148066 265.29806042 341.9006691 C265.29579826 343.75259353 265.29579826 343.75259353 265.29349041 345.64193058 C264.44428379 351.5289245 262.40951483 354.84901896 257.75220871 358.53718185 C252.86198215 360.96407689 247.74551378 360.6843405 242.39680004 360.63936234 C240.68521201 360.64872228 240.68521201 360.64872228 238.93904644 360.65827131 C235.11893184 360.6742148 231.29945408 360.661591 227.47933483 360.64900589 C224.73929053 360.6522261 221.9992732 360.66140396 219.25924206 360.67024612 C212.59188132 360.6880176 205.92470085 360.68419771 199.25733309 360.67259556 C193.83848582 360.66355684 188.41968902 360.66233913 183.00083637 360.66669083 C182.22919135 360.66730376 181.45754633 360.66791669 180.66251813 360.6685482 C179.09488024 360.66982711 177.52724237 360.67112397 175.95960451 360.67243856 C161.26580268 360.68384014 146.57210073 360.67073691 131.87831528 360.6492371 C119.27212727 360.63136292 106.66608659 360.63447363 94.05990124 360.65291214 C79.41662914 360.67432021 64.77344452 360.68274528 50.13015896 360.67046309 C48.56863917 360.6691889 47.00711937 360.66793142 45.44559956 360.66669083 C44.67732198 360.66607372 43.9090444 360.66545662 43.11748568 360.66482082 C37.70503969 360.66136799 32.29264922 360.66719474 26.88021183 360.67660904 C20.28446048 360.68782955 13.68889953 360.68478786 7.09316998 360.66348606 C3.72822971 360.65297649 0.36386962 360.65100611 -3.00110912 360.66208267 C-6.6489018 360.67298462 -10.29579678 360.65933755 -13.94353199 360.63936234 C-15.53851602 360.65274667 -15.53851602 360.65274667 -17.16572195 360.66640139 C-23.17433349 360.60241367 -26.63702657 360.13936976 -31.20987415 356.13142776 C-36.80381519 349.55384089 -35.71744953 341.53354462 -35.60049915 333.35408401 C-35.59302976 331.81709914 -35.58734013 330.28010468 -35.58334827 328.74310684 C-35.56814669 324.71679822 -35.52891338 320.6910757 -35.48453236 316.6649971 C-35.44346052 312.54907024 -35.42531196 308.43304778 -35.40518665 304.31697464 C-35.3624127 296.25485807 -35.29422919 288.19321603 -35.20987415 280.13142776 C-36.30932865 280.14031021 -37.40878315 280.14919266 -38.54155445 280.15834427 C-48.91419794 280.2395098 -59.2867768 280.29943149 -69.65966606 280.33867645 C-74.9922108 280.35953117 -80.3244987 280.38781043 -85.65689564 280.43318558 C-90.80513431 280.47671839 -95.95312628 280.50058079 -101.10153484 280.51093674 C-103.06350493 280.51831473 -105.02546185 280.5327223 -106.98732662 280.55434799 C-109.74027032 280.58348074 -112.49220094 280.58737964 -115.24527454 280.58552933 C-116.05232334 280.59991043 -116.85937214 280.61429153 -117.69087696 280.62910843 C-123.33587834 280.5881847 -126.6638201 279.56496089 -131.20987415 276.13142776 C-134.65561491 271.07864186 -135.71056205 267.8119028 -135.71780872 261.57918167 C-135.72716867 260.48731017 -135.72716867 260.48731017 -135.7367177 259.37338066 C-135.75258375 256.95124748 -135.74006939 254.53012966 -135.72745228 252.10799026 C-135.73287627 250.36463716 -135.74000048 248.62128864 -135.74869251 246.87794876 C-135.76689592 242.15478863 -135.75987067 237.43197881 -135.74717617 232.70881271 C-135.73703305 227.76064501 -135.7464455 222.81250683 -135.75272083 217.86433792 C-135.75999341 209.55552676 -135.75041975 201.24685793 -135.73135853 192.93806839 C-135.70959055 183.3386844 -135.7166422 173.73964027 -135.73866415 164.14026451 C-135.75682923 155.89122043 -135.75937104 147.64227853 -135.74890947 139.3932209 C-135.74268065 134.46957582 -135.74182212 129.54609036 -135.75505543 124.6224556 C-135.76662942 119.99300389 -135.75855992 115.3639894 -135.7354784 110.73458481 C-135.73019958 109.03789114 -135.73169093 107.34116052 -135.74052906 105.64448166 C-135.75150145 103.3237195 -135.73770244 101.004348 -135.71780872 98.68367386 C-135.71630062 97.38658493 -135.71479252 96.089496 -135.71323872 94.75310135 C-134.91742252 89.02725827 -132.7542866 85.33916247 -128.12917042 81.72230911 C-123.42953479 79.38706288 -118.64685649 79.6021762 -113.50113392 79.6773262 C-112.44672611 79.6767421 -111.39231831 79.67615799 -110.30595875 79.67555618 C-106.83739218 79.67833225 -103.36969597 79.70940296 -99.9012804 79.74080276 C-97.48990314 79.74826682 -95.07851979 79.75395897 -92.66713428 79.75795364 C-86.33275965 79.77319684 -79.99875421 79.81246797 -73.66452503 79.85676956 C-67.19596825 79.89775024 -60.72735157 79.91597067 -54.25870228 79.93611526 C-41.57560243 79.97896296 -28.89275796 80.04642562 -16.20987415 80.13142776 C-16.22097721 79.29728348 -16.23208027 78.46313919 -16.24351978 77.6037178 C-16.34396717 69.71844703 -16.4199631 61.83339307 -16.46893501 53.94762802 C-16.49495922 49.8940322 -16.53022375 45.8409678 -16.58707142 41.78767776 C-16.64165064 37.87133992 -16.6713486 33.95551117 -16.68426037 30.03882217 C-16.69345415 28.54933032 -16.71140753 27.05986435 -16.73852444 25.57059097 C-17.0036512 10.39756064 -17.0036512 10.39756064 -11.20987415 4.13142776 C-7.7339303 0.96218484 -4.65337715 0.00777604 0 0 Z " fill="#1467C7" transform="translate(175.2098741531372,59.86857223510742)"/>
<path d="M0 0 C0.72312522 -0.00694553 1.44625043 -0.01389106 2.19128853 -0.02104706 C4.59725211 -0.03924012 7.002221 -0.02907496 9.40821838 -0.01878357 C11.14009841 -0.02584598 12.87197226 -0.03459235 14.60383606 -0.04489136 C19.29605929 -0.06735918 23.9879448 -0.06445171 28.68020129 -0.05556989 C32.60166964 -0.05045327 36.5230749 -0.05775804 40.44453675 -0.06504196 C49.69762363 -0.08203274 58.95054557 -0.07848344 68.20362854 -0.06175232 C77.74056174 -0.04483063 87.27703723 -0.06066805 96.81392044 -0.0929752 C105.01118076 -0.1196893 113.20829876 -0.12694221 121.40559822 -0.11846012 C126.29746381 -0.11353636 131.18905403 -0.11571673 136.08088493 -0.13624763 C140.68168195 -0.15463341 145.2818217 -0.14861081 149.88258362 -0.12404823 C151.56757341 -0.11904955 153.25261353 -0.1225056 154.93756294 -0.13519669 C170.28633957 -0.24162723 170.28633957 -0.24162723 176.09907627 4.12533665 C179.9294839 7.94462839 181.6618775 11.49421506 181.8830719 16.91700745 C181.8568863 18.42922607 181.80977269 19.94121761 181.7424469 21.4521637 C181.72440002 22.23140198 181.70635315 23.01064026 181.6877594 23.81349182 C181.64111073 25.71442501 181.56938519 27.61471539 181.4924469 29.5146637 C184.4624469 29.5146637 187.4324469 29.5146637 190.4924469 29.5146637 C190.4924469 76.7046637 190.4924469 123.8946637 190.4924469 172.5146637 C186.5324469 170.5346637 186.5324469 170.5346637 182.4924469 168.5146637 C182.46666565 169.7934137 182.4408844 171.0721637 182.4143219 172.3896637 C182.35800215 174.09802935 182.30065572 175.80636137 182.2424469 177.5146637 C182.22826721 178.35384338 182.21408752 179.19302307 182.19947815 180.05763245 C181.97234856 185.91757593 180.90278916 190.65196977 177.4924469 195.5146637 C172.12288011 199.78840053 168.24297767 200.63941826 161.49714661 200.66183472 C160.78081708 200.6655114 160.06448755 200.66918809 159.32645106 200.6729762 C156.91986173 200.68401223 154.51331557 200.68785673 152.10670471 200.69166565 C150.38365034 200.69793035 148.66059732 200.70457716 146.93754578 200.71157837 C141.27356406 200.73261989 135.60958206 200.74298064 129.9455719 200.75294495 C127.99583166 200.75699243 126.04609157 200.76110935 124.09635162 200.76529503 C114.93667843 200.78434667 105.77701331 200.79857792 96.61732411 200.806907 C86.04357496 200.81668061 75.47003509 200.84300351 64.89635968 200.88340789 C56.72385646 200.91356536 48.55141325 200.92837552 40.37885547 200.93168801 C35.49759054 200.93403887 30.61654918 200.94300409 25.73534393 200.96814919 C21.14211178 200.99142851 16.54925044 200.99566371 11.95597458 200.9853878 C10.27216483 200.9848923 8.58833684 200.991217 6.90458298 201.00494385 C4.60117313 201.02266848 2.29909329 201.01555506 -0.00431824 201.00241089 C-1.29185375 201.00479924 -2.57938927 201.0071876 -3.90594101 201.00964832 C-8.86809513 200.32767871 -12.54216309 198.85336554 -15.81585526 194.95785886 C-18.52985851 190.70137399 -19.00958877 187.03594712 -19.01548767 181.9624176 C-19.02484761 180.8705461 -19.02484761 180.8705461 -19.03439665 179.75661659 C-19.0502627 177.33448341 -19.03774834 174.91336559 -19.02513123 172.4912262 C-19.03055521 170.74787309 -19.03767943 169.00452457 -19.04637146 167.26118469 C-19.06457487 162.53802456 -19.05754962 157.81521474 -19.04485512 153.09204865 C-19.034712 148.14388094 -19.04412444 143.19574277 -19.05039978 138.24757385 C-19.05767236 129.93876269 -19.04809869 121.63009386 -19.02903748 113.32130432 C-19.0072695 103.72192033 -19.01432114 94.1228762 -19.0363431 84.52350044 C-19.05450818 76.27445636 -19.05704999 68.02551446 -19.04658842 59.77645683 C-19.0403596 54.85281175 -19.03950107 49.92932629 -19.05273438 45.00569153 C-19.06430837 40.37623982 -19.05623887 35.74722533 -19.03315735 31.11782074 C-19.02787853 29.42112707 -19.02936988 27.72439646 -19.03820801 26.02771759 C-19.04918039 23.70695543 -19.03538139 21.38758393 -19.01548767 19.06690979 C-19.01397957 17.76982086 -19.01247147 16.47273193 -19.01091766 15.13633728 C-18.32017317 10.16647791 -16.85469757 6.48461495 -12.94925588 3.20678955 C-8.70694833 0.50385061 -5.05633206 0.01101564 0 0 Z " fill="#00488D" transform="translate(58.50755310058594,139.48533630371094)"/>
<path d="M0 0 C0.33 0 0.66 0 1 0 C1.09346855 21.1316223 1.1639916 42.26321047 1.20724869 63.3949976 C1.22786815 73.20700557 1.25597702 83.01888505 1.30175781 92.83081055 C1.34164438 101.38354419 1.36743729 109.93618477 1.37635398 118.48900884 C1.38156564 123.01710782 1.39380212 127.54494058 1.42292023 132.07295418 C1.45011811 136.33700537 1.45843619 140.60068125 1.45243073 144.86481094 C1.45352901 146.42768457 1.46145701 147.99057104 1.4768219 149.55336952 C1.61839532 164.69907182 1.61839532 164.69907182 -3 170 C-9.05994811 174.41547291 -14.03259122 174.56983213 -21.39332581 174.50793457 C-22.53438449 174.51417453 -23.67544318 174.5204145 -24.8510794 174.52684355 C-28.67119401 174.54278703 -32.49067177 174.53016324 -36.31079102 174.51757812 C-39.05083531 174.52079834 -41.79085264 174.5299762 -44.53088379 174.53881836 C-51.19824453 174.55658984 -57.86542499 174.55276995 -64.53279275 174.5411678 C-69.95164003 174.53212908 -75.37043682 174.53091136 -80.78928947 174.53526306 C-81.56093449 174.53587599 -82.33257951 174.53648893 -83.12760771 174.53712043 C-84.6952456 174.53839935 -86.26288348 174.5396962 -87.83052134 174.5410108 C-102.52432317 174.55241238 -117.21802512 174.53930914 -131.91181057 174.51780933 C-144.51799857 174.49993516 -157.12403926 174.50304587 -169.73022461 174.52148438 C-184.37349671 174.54289244 -199.01668133 174.55131752 -213.65996689 174.53903532 C-215.22148667 174.53776114 -216.78300648 174.53650365 -218.34452629 174.53526306 C-219.11280387 174.53464596 -219.88108145 174.53402886 -220.67264016 174.53339306 C-226.08508615 174.52994022 -231.49747662 174.53576697 -236.90991402 174.54518127 C-243.50566537 174.55640179 -250.10122632 174.55336009 -256.69695587 174.5320583 C-260.06189614 174.52154873 -263.42625623 174.51957835 -266.79123497 174.53065491 C-270.43902764 174.54155686 -274.08592263 174.52790979 -277.73365784 174.50793457 C-278.79698052 174.51685746 -279.86030321 174.52578034 -280.9558478 174.53497362 C-286.96445933 174.4709859 -290.42715241 174.007942 -295 170 C-300.59394103 163.42241312 -299.50757538 155.40211686 -299.390625 147.22265625 C-299.3831556 145.68567138 -299.37746597 144.14867692 -299.37347412 142.61167908 C-299.35827253 138.58537045 -299.31903923 134.55964794 -299.2746582 130.53356934 C-299.23358636 126.41764248 -299.2154378 122.30162002 -299.1953125 118.18554688 C-299.15253854 110.1234303 -299.08435504 102.06178826 -299 94 C-297.3917334 93.99453156 -297.3917334 93.99453156 -295.75097656 93.98895264 C-285.62858091 93.95195253 -275.50648806 93.89412494 -265.38432312 93.81609726 C-260.18084483 93.77664994 -254.97753507 93.74444792 -249.77392578 93.72900391 C-244.748678 93.71381936 -239.72389365 93.6793416 -234.69885254 93.63169098 C-232.785238 93.61689577 -230.87155729 93.60896006 -228.95788574 93.60811615 C-226.26960297 93.60573913 -223.58259331 93.57860101 -220.89453125 93.54589844 C-220.10977921 93.5509288 -219.32502716 93.55595917 -218.51649475 93.56114197 C-213.03021025 93.45841425 -208.50637718 92.24302718 -204 89 C-199.66350312 83.40116248 -199.35979539 77.36720237 -199.25 70.5 C-199.20552734 69.12328125 -199.20552734 69.12328125 -199.16015625 67.71875 C-199.09016664 65.47908236 -199.03712683 63.24041212 -199 61 C-197.9948938 61.54853638 -197.9948938 61.54853638 -196.96948242 62.1081543 C-192.20666679 64.70684612 -187.44290984 67.30375862 -182.67578125 69.89453125 C-181.79986328 70.37132324 -180.92394531 70.84811523 -180.02148438 71.33935547 C-178.16336252 72.34980133 -176.30391649 73.35781481 -174.44335938 74.36376953 C-169.98873783 76.78132663 -165.56961683 79.22760226 -161.23046875 81.84765625 C-160.51012451 82.27651123 -159.78978027 82.70536621 -159.04760742 83.1472168 C-157.72092334 83.94272106 -156.40381762 84.75451407 -155.09887695 85.58520508 C-153.12091703 86.82250968 -153.12091703 86.82250968 -150 88 C-145.91001668 86.94811164 -142.41391038 85.27558355 -138.75390625 83.19921875 C-137.76390625 82.64105469 -136.77390625 82.08289063 -135.75390625 81.5078125 C-134.70074219 80.90710938 -133.64757812 80.30640625 -132.5625 79.6875 C-130.90347656 78.74970703 -130.90347656 78.74970703 -129.2109375 77.79296875 C-125.80469637 75.86651995 -122.40228621 73.93342271 -119 72 C-116.10039032 70.35912832 -113.19969899 68.72018369 -110.29882812 67.08154297 C-108.42071382 66.02027077 -106.54311583 64.95808438 -104.66601562 63.89501953 C-99.735031 61.10343511 -94.79727231 58.32483872 -89.84765625 55.56640625 C-78.47851052 49.2293456 -67.18363869 42.79219643 -55.96704102 36.1887207 C-48.89408934 32.04747815 -41.72717542 28.11468982 -34.5 24.25 C-16.03884806 15.08289699 -16.03884806 15.08289699 -1.06640625 1.3984375 C-0.71449219 0.93695313 -0.36257813 0.47546875 0 0 Z " fill="#139FE2" transform="translate(439,246)"/>
<path d="M0 0 C30.03 0 60.06 0 91 0 C91.04030303 36.00852202 91.04030303 36.00852202 91.04882812 51.16601562 C91.05474815 61.60750829 91.06168536 72.04899284 91.07543945 82.49047852 C91.08545426 90.09693945 91.0918695 97.70339378 91.09408849 105.30986112 C91.09538413 109.33173056 91.09839647 113.35358108 91.10573006 117.37544441 C91.1125979 121.17322788 91.11459545 124.97098494 91.11310768 128.76877403 C91.11350716 130.80196854 91.11884556 132.83516027 91.12442017 134.86834717 C91.11478439 143.62387673 90.68133324 152.27483124 90 161 C81.95685505 161.13261148 73.91368335 161.2632972 65.87046146 161.39115143 C62.13261706 161.45063394 58.39478681 161.51080422 54.65698242 161.57275391 C51.02593609 161.63290541 47.39486117 161.69097996 43.76376152 161.74781799 C41.75671626 161.7797154 39.74970248 161.8135752 37.74269104 161.84753418 C25.15770631 162.04143068 12.59228718 162 0 162 C0 108.54 0 55.08 0 0 Z " fill="#1BB4FE" transform="translate(339,88)"/>
<path d="M0 0 C29.7 0 59.4 0 90 0 C90 53.46 90 106.92 90 162 C60.63 162 31.26 162 1 162 C0.24971658 107.97959357 -0.09681941 54.02523289 0 0 Z " fill="#168FD4" transform="translate(249,88)"/>
<path d="M0 0 C0.33 0 0.66 0 1 0 C1.09346855 21.1316223 1.1639916 42.26321047 1.20724869 63.3949976 C1.22786815 73.20700557 1.25597702 83.01888505 1.30175781 92.83081055 C1.34164438 101.38354419 1.36743729 109.93618477 1.37635398 118.48900884 C1.38156564 123.01710782 1.39380212 127.54494058 1.42292023 132.07295418 C1.45011811 136.33700537 1.45843619 140.60068125 1.45243073 144.86481094 C1.45352901 146.42768457 1.46145701 147.99057104 1.4768219 149.55336952 C1.6164289 164.48870164 1.6164289 164.48870164 -3 170 C-3.99 170.33 -4.98 170.66 -6 171 C-8.68408203 169.6003418 -8.68408203 169.6003418 -11.8828125 167.51171875 C-13.0575006 166.75998554 -14.23364681 166.01052667 -15.41113281 165.26318359 C-16.00962036 164.88176208 -16.60810791 164.50034058 -17.22473145 164.10736084 C-21.98611343 161.13734938 -26.95708627 158.51142604 -31.875 155.8125 C-34.25609295 154.49899524 -36.63585594 153.18308897 -39.015625 151.8671875 C-39.60747589 151.54026413 -40.19932678 151.21334076 -40.80911255 150.87651062 C-46.43499348 147.76633331 -52.03307629 144.60820857 -57.625 141.4375 C-65.61042622 136.91112806 -73.61192685 132.41474487 -81.625 127.9375 C-90.11793295 123.19029865 -98.5809073 118.39462202 -107.02099609 113.55419922 C-120.94467147 105.58072157 -134.96953504 97.78369329 -149 90 C-146.53443868 87.23323031 -143.84903314 85.65455105 -140.609375 83.8828125 C-139.51931152 83.28267334 -138.42924805 82.68253418 -137.30615234 82.06420898 C-136.72710144 81.74845917 -136.14805054 81.43270935 -135.55145264 81.10739136 C-133.10001349 79.77054098 -130.65479 78.42250553 -128.209198 77.07499695 C-126.95602508 76.38459122 -125.70254372 75.69474506 -124.44876099 75.00544739 C-118.73212852 71.86074376 -113.04923843 68.65804067 -107.375 65.4375 C-101.54473754 62.13103349 -95.71030505 58.83312085 -89.85546875 55.5703125 C-78.48346858 49.23237203 -67.18615326 42.79367681 -55.96704102 36.1887207 C-48.89408934 32.04747815 -41.72717542 28.11468982 -34.5 24.25 C-16.03884806 15.08289699 -16.03884806 15.08289699 -1.06640625 1.3984375 C-0.71449219 0.93695313 -0.36257813 0.47546875 0 0 Z " fill="#2DCFFE" transform="translate(439,246)"/>
<path d="M0 0 C9.29359151 8.2046153 16.57607813 20.76244482 17.6105957 33.29223633 C18.11154954 52.20274479 16.05655757 68.72258179 2.87109375 83.4609375 C-8.29294193 93.8647762 -22.50191433 96.85912787 -37.27734375 96.45703125 C-49.89867547 95.7813891 -61.19440389 90.04018997 -69.87890625 80.9609375 C-80.64205173 68.03190238 -83.5191445 52.52474964 -82.56640625 36.1484375 C-80.94134356 21.97013823 -75.95950332 10.21968232 -65.44140625 0.375 C-45.77933451 -14.85241969 -20.10560521 -14.50541381 0 0 Z " fill="#FBFCFD" transform="translate(171.56640625,197.8515625)"/>
<path d="M0 0 C1.29400749 -0.00576172 1.29400749 -0.00576172 2.61415654 -0.01163983 C3.56238953 -0.01077335 4.51062252 -0.00990687 5.48758984 -0.00901413 C6.99804081 -0.01347081 6.99804081 -0.01347081 8.53900594 -0.01801753 C11.92911737 -0.02672183 15.31919356 -0.02821424 18.7093153 -0.02970505 C21.13349006 -0.03433197 23.55766409 -0.03935646 25.98183727 -0.04475021 C32.5789587 -0.05788779 39.17607278 -0.06435831 45.77320409 -0.06876087 C49.89216475 -0.07152317 54.01112306 -0.0757605 58.13008213 -0.08026505 C69.53340317 -0.09245771 80.93672233 -0.10275707 92.34004974 -0.10614014 C93.06993499 -0.1063597 93.79982023 -0.10657927 94.55182321 -0.10680549 C95.64927586 -0.10713291 95.64927586 -0.10713291 96.76889926 -0.10746694 C98.25147935 -0.1079104 99.73405943 -0.10835697 101.21663952 -0.10880661 C101.952051 -0.10902804 102.68746248 -0.10924947 103.44515916 -0.10947761 C115.36198482 -0.11342579 127.27874933 -0.13088042 139.19555137 -0.15416613 C151.42919201 -0.17787809 163.66280196 -0.19034191 175.89646596 -0.19150805 C182.76569396 -0.1924249 189.63484229 -0.19817949 196.50404835 -0.21632767 C202.96446451 -0.23333564 209.42476975 -0.23498243 215.88520336 -0.22618866 C218.25798669 -0.22541625 220.63077802 -0.22978775 223.00354099 -0.23964691 C226.23977937 -0.2523066 229.4754767 -0.24652185 232.71171093 -0.23606491 C233.65325175 -0.24412132 234.59479257 -0.25217772 235.56486493 -0.26047826 C240.72916157 -0.22138336 244.32800942 0.23566431 248.79012585 3.13142776 C256.39323723 11.36813176 254.79012585 15.35729241 254.79012585 28.13142776 C165.36012585 28.13142776 75.93012585 28.13142776 -16.20987415 28.13142776 C-16.20987415 9.30285634 -16.20987415 9.30285634 -11.20987415 4.13142776 C-7.7339303 0.96218484 -4.65337715 0.00777604 0 0 Z " fill="#0B4899" transform="translate(175.2098741531372,59.86857223510742)"/>
<path d="M0 0 C29.37 0 58.74 0 89 0 C89 26.73 89 53.46 89 81 C59.63 81 30.26 81 0 81 C0 54.27 0 27.54 0 0 Z " fill="#1F75D3" transform="translate(250,169)"/>
<path d="M0 0 C29.7 0 59.4 0 90 0 C90 26.07 90 52.14 90 79 C60.3 79 30.6 79 0 79 C0 52.93 0 26.86 0 0 Z " fill="#2ECCFD" transform="translate(340,89)"/>
<path d="M0 0 C29.7 0 59.4 0 90 0 C90 26.73 90 53.46 90 81 C87.03 81 84.06 81 81 81 C80.97421875 79.85402344 80.9484375 78.70804687 80.921875 77.52734375 C80.86555657 75.9973597 80.8082101 74.46741325 80.75 72.9375 C80.73582031 72.18533203 80.72164063 71.43316406 80.70703125 70.65820312 C80.46306504 65.02258376 79.40992137 61.55213359 76 57 C69.29236583 51.55654182 61.44521689 52.39520768 53.22265625 52.390625 C51.68564625 52.37562957 50.14865228 52.35889956 48.61167908 52.34051514 C44.58563461 52.29698174 40.55980746 52.27687393 36.53356934 52.26177979 C31.69249216 52.23870198 26.85165294 52.18628858 22.01076508 52.13883972 C14.67378155 52.07018569 7.33748006 52.03860816 0 52 C0 34.84 0 17.68 0 0 Z " fill="#1B5EAF" transform="translate(159,88)"/>
<path d="M0 0 C8.99275925 5.62047453 14.24234982 12.5096219 17 22.875 C18.40624184 36.14378246 17.91588544 49.42621919 9.5625 60.4375 C2.04977478 67.58375082 -4.39657953 69.36385245 -14.5546875 69.18359375 C-19.21037709 68.76658754 -22.28861078 67.67525988 -26 64.875 C-26.61359375 64.41222656 -27.2271875 63.94945312 -27.859375 63.47265625 C-34.17990331 57.94894668 -37.22509623 49.94810274 -39 41.875 C-39.78254222 28.9309819 -39.49163493 17.12718472 -30.80078125 6.66796875 C-22.52199163 -1.57490421 -11.21940725 -4.178786 0 0 Z " fill="#01498D" transform="translate(150,207.125)"/>
<path d="M0 0 C5.37380583 1.07476117 7.27551527 2.10228343 11 6 C11.8125 8.8125 11.8125 8.8125 11 12 C4.7524388 21.71842854 -6.18326697 27.3273526 -16.125 32.5625 C-24.1443746 36.85697984 -32.04133736 41.31324033 -39.875 45.9375 C-49.07374633 51.35832376 -58.38372698 56.52670491 -67.79492188 61.56884766 C-73.96594616 64.87859159 -80.04201079 68.28222781 -86.0234375 71.92578125 C-88 73 -88 73 -90 73 C-90 54.19 -90 35.38 -90 16 C-61.26820039 14.85072802 -61.26820039 14.85072802 -48.33984375 14.90234375 C-46.91825919 14.90422176 -45.49667396 14.90563905 -44.0750885 14.90663147 C-40.43399079 14.91034831 -36.79293662 14.92007751 -33.15185547 14.93133545 C-29.39616484 14.94179093 -25.64046678 14.9461793 -21.88476562 14.95117188 C-14.58982212 14.96171651 -7.29492284 14.97921674 0 15 C0 10.05 0 5.1 0 0 Z " fill="#0F73D9" transform="translate(429,234)"/>
<path d="M0 0 C2.97 0 5.94 0 9 0 C9 47.19 9 94.38 9 143 C1 139 1 139 0 138 C-0.09636838 136.21572813 -0.12187453 134.42760347 -0.12025452 132.64073181 C-0.12162918 131.47820389 -0.12300385 130.31567596 -0.12442017 129.11791992 C-0.12082489 127.83111328 -0.11722961 126.54430664 -0.11352539 125.21850586 C-0.11324352 123.85876976 -0.11340125 122.4990335 -0.1139679 121.13929749 C-0.11425587 117.43698222 -0.10835912 113.73469908 -0.10139394 110.03239131 C-0.09516043 106.16731219 -0.0945566 102.30223242 -0.09336853 98.43714905 C-0.09025521 91.11315318 -0.0820418 83.78917216 -0.07201904 76.46518284 C-0.06085794 68.12916552 -0.05534746 59.79314751 -0.05032361 51.45712459 C-0.03985919 34.30474112 -0.02225973 17.15237213 0 0 Z " fill="#074CAE" transform="translate(240,169)"/>
<path d="M0 0 C2.97 0 5.94 0 9 0 C9 20.46 9 40.92 9 62 C1 58 1 58 0 57 C-0.09370624 55.22008076 -0.11744271 53.43643261 -0.11352539 51.65405273 C-0.11344986 50.5129454 -0.11337433 49.37183807 -0.11329651 48.19615173 C-0.10813522 46.9545076 -0.10297394 45.71286346 -0.09765625 44.43359375 C-0.0962413 43.16983414 -0.09482635 41.90607452 -0.09336853 40.60401917 C-0.08870582 37.23875111 -0.0797148 33.8735501 -0.06866455 30.50830078 C-0.05844846 27.0765033 -0.05387049 23.64469891 -0.04882812 20.21289062 C-0.0377738 13.47524176 -0.0210171 6.73762475 0 0 Z " fill="#0F439D" transform="translate(240,250)"/>
<path d="M0 0 C7.46341463 2.48780488 7.46341463 2.48780488 10 6 C10.6875 8.75 10.6875 8.75 10 12 C7.25294296 15.9817715 4.66079932 19.44640023 0 21 C0 14.07 0 7.14 0 0 Z " fill="#19247E" transform="translate(430,234)"/>
</svg>
